# xmcd CD database file generated by Grip 2.94
# 
# Track frame offsets:
#       150
#       17730
#       33470
#       49212
#       69130
#       84327
#       106580
#       123667
#       141770
#       166252
#       183300
#       197925
#       214725
# 
# Disc length: 3050 seconds
# 
# Revision: 3
# Processed by: cddbd v1.4b41PL2 Copyright (c) Steve Scherf et al.
# Submitted via: Grip 2.94
# 
DISCID=ad0be80d
DTITLE=Shannon Curfman - Loud Guitars, Big Suspicons
DYEAR=1900
DGENRE=
TTITLE0=Few and Far Between
TTITLE1=No Riders
TTITLE2=True Friends
TTITLE3=If You Change Your Mind
TTITLE4=Love Me Like That
TTITLE5=Playing With Fire
TTITLE6=I Don't Make Promises (I Can't Break)
TTITLE7=Hard to Make a Stand
TTITLE8=The Weight
TTITLE9=Never Enough
TTITLE10=I'm Coming Home
TTITLE11=Musta Been Love
TTITLE12=Real Bad Feeling
EXTD=
EXTT0=
EXTT1=
EXTT2=
EXTT3=
EXTT4=
EXTT5=
EXTT6=
EXTT7=
EXTT8=
EXTT9=
EXTT10=
EXTT11=
EXTT12=
PLAYORDER=
